<svg xmlns:dc="http://purl.org/dc/elements/1.1/" xmlns:cc="http://creativecommons.org/ns#" xmlns:rdf="http://www.w3.org/1999/02/22-rdf-syntax-ns#" xmlns:svg="http://www.w3.org/2000/svg" xmlns="http://www.w3.org/2000/svg" xmlns:xlink="http://www.w3.org/1999/xlink" xmlns:sodipodi="http://sodipodi.sourceforge.net/DTD/sodipodi-0.dtd" xmlns:inkscape="http://www.inkscape.org/namespaces/inkscape" width="924.425" height="255.386" id="svg3067" version="1.1" inkscape:version="0.48.4 r9939">
  <defs id="defs3069">
    <radialGradient inkscape:collect="always" xlink:href="#linearGradient3100" id="radialGradient3172" gradientUnits="userSpaceOnUse" gradientTransform="matrix(1,0,0,0.1971116,0,377.3826)" cx="253.141" cy="470.031" fx="253.14085" fy="470.03119" r="114.361"/>
    <linearGradient inkscape:collect="always" id="linearGradient3100">
      <stop style="stop-color:#333333;stop-opacity:1;" offset="0" id="stop3102"/>
      <stop style="stop-color:#333333;stop-opacity:0;" offset="1" id="stop3104"/>
    </linearGradient>
    <radialGradient inkscape:collect="always" xlink:href="#linearGradient3423" id="radialGradient3248" gradientUnits="userSpaceOnUse" gradientTransform="matrix(0.442636,0,0,0.442636,13.445,27.78311)" cx="317.614" cy="207.493" fx="317.61365" fy="207.49344" r="245.833"/>
    <linearGradient id="linearGradient3423">
      <stop style="stop-color:#6a6a6a;stop-opacity:1;" offset="0" id="stop3425"/>
      <stop style="stop-color:#000000;stop-opacity:1;" offset="1" id="stop3427"/>
    </linearGradient>
    <radialGradient inkscape:collect="always" xlink:href="#linearGradient3413" id="radialGradient3245" gradientUnits="userSpaceOnUse" gradientTransform="matrix(0.528,0,0,0.52803664,-9.8086,-438.46601)" cx="311.427" cy="1062.918" fx="311.42657" fy="1062.9181" r="225.062"/>
    <linearGradient id="linearGradient3413">
      <stop style="stop-color:#ffffff;stop-opacity:1;" offset="0" id="stop3415"/>
      <stop id="stop3512" offset="0.47019866" style="stop-color:#ffffff;stop-opacity:1;"/>
      <stop style="stop-color:#d6d6d6;stop-opacity:1;" offset="1" id="stop3417"/>
    </linearGradient>
    <linearGradient inkscape:collect="always" xlink:href="#linearGradient3520" id="linearGradient3242" gradientUnits="userSpaceOnUse" gradientTransform="matrix(0.51432608,0,0,0.51432608,-3.32268,-426.56665)" x1="350.873" y1="1121.957" x2="468.475" y2="1143.901"/>
    <linearGradient inkscape:collect="always" id="linearGradient3520">
      <stop style="stop-color:#000000;stop-opacity:1;" offset="0" id="stop3522"/>
      <stop style="stop-color:#000000;stop-opacity:0;" offset="1" id="stop3524"/>
    </linearGradient>
    <linearGradient inkscape:collect="always" xlink:href="#linearGradient3528" id="linearGradient3239" gradientUnits="userSpaceOnUse" gradientTransform="matrix(0.5146968,0,0,0.5146968,-6.55836,-427.69993)" x1="237.346" y1="1070.503" x2="125.475" y2="1026.626"/>
    <linearGradient inkscape:collect="always" id="linearGradient3528">
      <stop style="stop-color:#000000;stop-opacity:1;" offset="0" id="stop3530"/>
      <stop style="stop-color:#000000;stop-opacity:0;" offset="1" id="stop3532"/>
    </linearGradient>
    <linearGradient inkscape:collect="always" xlink:href="#linearGradient3536" id="linearGradient3250" gradientUnits="userSpaceOnUse" gradientTransform="matrix(0.4637684,0,0,0.4637684,17.40156,-396.03937)" x1="299.174" y1="952.464" x2="320.482" y2="882.127"/>
    <linearGradient id="linearGradient3536">
      <stop style="stop-color:#333333;stop-opacity:1;" offset="0" id="stop3538"/>
      <stop style="stop-color:#000000;stop-opacity:0;" offset="1" id="stop3540"/>
    </linearGradient>
    <radialGradient r="114.361" fy="470.03119" fx="253.14085" cy="470.031" cx="253.141" gradientTransform="matrix(1,0,0,0.1971116,0,377.3826)" gradientUnits="userSpaceOnUse" id="radialGradient3136" xlink:href="#linearGradient3100" inkscape:collect="always"/>
  </defs>
  <metadata id="metadata3072">
    <rdf:RDF>
      <cc:Work rdf:about="">
        <dc:format>image/svg+xml</dc:format>
        <dc:type rdf:resource="http://purl.org/dc/dcmitype/StillImage"/>
        <dc:title/>
      </cc:Work>
    </rdf:RDF>
  </metadata>
  <g id="layer1" inkscape:label="Layer 1" inkscape:groupmode="layer" transform="translate(-27.041,-25.73863)">
    <text xml:space="preserve" style="font-size:21.11999893px;font-style:normal;font-weight:normal;line-height:125%;letter-spacing:0px;word-spacing:0px;fill:#000000;fill-opacity:1;stroke:none;enable-background:new;font-family:Sans" x="315.343" y="341.693" id="text3033"><tspan id="tspan3035" x="315.343" y="341.693"/></text>
    <path style="fill:url(#radialGradient3136);fill-opacity:1;fill-rule:evenodd;stroke:none;stroke-width:3;marker:none;visibility:visible;display:inline;overflow:visible;enable-background:accumulate" id="path2521" d="m 366.002 470.031 c 0 11.621 -50.53 21.042 -112.861 21.042 -62.332 0 -112.861 -9.421 -112.861 -21.042 0 -11.621 50.53 -21.042 112.861 -21.042 62.332 0 112.861 9.421 112.861 21.042 z" transform="matrix(0.9329924,0,0,1.736841,-101.71956,-574.65449)"/>
    <path inkscape:connector-curvature="0" style="fill:url(#radialGradient3248);fill-opacity:1;fill-rule:evenodd;stroke:none;stroke-width:5.57342529;marker:none;visibility:visible;display:inline;overflow:visible;enable-background:accumulate" d="m 264.731 144.583 c 0 65.602 -53.242 118.845 -118.845 118.845 -65.602 0 -118.845 -53.242 -118.845 -118.845 0 -65.602 53.243 -118.845 118.845 -118.845 65.602 0 118.845 53.242 118.845 118.845 z" id="path3382"/>
    <path inkscape:connector-curvature="0" style="fill:url(#radialGradient3245);fill-opacity:1;fill-rule:evenodd;stroke:none;stroke-width:5.10303545;marker:none;visibility:visible;display:inline;overflow:visible;enable-background:accumulate" d="m 145.881 25.741 c -25.94 0 -49.936 8.334 -69.482 22.456 -8.509 10.29 -14.47 20.592 -14.47 20.592 l -10.857 4.158 c -15.079 19.924 -24.024 44.747 -24.024 71.643 0 2.512 0.08 5.001 0.231 7.475 2.701 4.826 4.719 7.903 4.719 7.903 l -1.386 13.563 c 7.762 30.983 27.696 57.152 54.417 73.128 1.909 1.235 3.504 1.982 5.256 2.973 C 89.355 248.754 89.069 248.519 88.461 247.963 81.467 240.728 75.575 232.271 75.575 232.271 l 16.912 -15.56 c 0 0 10.874 8.218 23.084 12.474 12.21 4.256 25.757 4.554 25.757 4.554 l 8.382 21.516 c 0 0 -7.407 3.799 -17.919 5.66 -1.882 0.334 -3.872 0.604 -5.858 0.825 6.488 1.099 13.149 1.683 19.948 1.683 27.478 0 52.795 -9.337 72.93 -25.014 6.299 -8.44 10.428 -15.692 10.428 -15.692 l 9.174 -3.597 c 16.28 -20.182 26.102 -45.788 26.301 -73.673 -3.234 -9.588 -6.765 -15.213 -6.765 -15.213 0 0 0.901 -8.756 -0.365 -18.4 -0.198 -1.513 0.818 -0.975 2.042 -1.796 -0.363 -1.37 -1.682 -5.442 -2.347 -7.386 -2.619 -7.654 -5.195 -11.305 -6.887 -14.691 3.296 1.842 -0.016 -0.008 -0.016 -0.016 C 230.243 50.9 190.983 25.741 145.881 25.741 z m 14.372 4.521 c 9.876 0.135 20.18 3.333 20.18 3.333 0 0 11.707 4.499 20.064 10.857 8.357 6.358 13.365 14.57 13.365 14.57 l -21.252 14.685 c 0 0 -11.44 -7.837 -23.397 -12.061 -11.957 -4.225 -24.436 -4.835 -24.436 -4.835 l -6.023 -21.928 c 0 0 9.115 -4.282 19.536 -4.604 0.651 -0.016 1.305 -0.024 1.964 -0.016 z M 90.804 88.969 c 7.297 0.032 13.365 0.907 13.365 0.907 l 10.989 46.695 -35.277 33.594 c 0 0 -11.016 -6.989 -18.958 -13.827 -7.943 -6.838 -12.821 -13.53 -12.821 -13.53 0 0 1.434 -13.545 4.67 -25.195 3.235 -11.65 8.283 -21.401 8.283 -21.401 0 0 8.722 -5.02 19.503 -6.6 3.369 -0.494 6.93 -0.658 10.246 -0.643 z m 114.329 33.346 c 0 0 9.946 4.358 17.968 10.774 8.022 6.417 14.124 14.9 14.124 14.9 0 0 -0.569 11.616 -4.406 23.694 -3.836 12.078 -10.939 24.618 -10.939 24.618 0 0 -9.915 3.638 -20.378 4.62 -10.463 0.982 -21.483 -0.693 -21.483 -0.693 l -5.462 -22.852 -5.626 -23.496 c 0 0 7.467 -9.004 16.517 -16.896 9.05 -7.892 19.684 -14.668 19.684 -14.668 z" id="path3400"/>
    <path inkscape:connector-curvature="0" id="path3514" d="m 236.341 148.339 c 0 0 -0.559 11.322 -4.296 23.087 -3.737 11.765 -10.652 23.973 -10.652 23.973 0 0 -9.661 3.55 -19.852 4.507 -10.192 0.956 -20.915 -0.682 -20.915 -0.682 l -5.327 -22.255 -5.476 -22.88 c 0 0 7.272 -8.782 16.087 -16.47 8.815 -7.688 19.174 -14.282 19.174 -14.282 0 0 9.687 4.251 17.502 10.502 7.814 6.251 13.756 14.5 13.756 14.5 z" style="fill:none;stroke:url(#linearGradient3242);stroke-width:2.57163024;stroke-linecap:butt;stroke-linejoin:round;stroke-miterlimit:4;stroke-opacity:1;stroke-dashoffset:0;marker:none;visibility:visible;display:inline;overflow:visible;enable-background:accumulate"/>
    <path inkscape:connector-curvature="0" id="path3516" d="m 79.925 169.136 c 0 0 -10.738 -6.814 -18.481 -13.48 -7.743 -6.666 -12.49 -13.183 -12.49 -13.183 0 0 1.392 -13.198 4.546 -24.555 3.154 -11.357 8.07 -20.872 8.07 -20.872 0 0 8.5 -4.887 19.01 -6.427 10.51 -1.541 23.029 0.265 23.029 0.265 l 10.708 45.519 -34.391 32.733 z" style="fill:none;stroke:url(#linearGradient3239);stroke-width:2.57348442;stroke-linecap:butt;stroke-linejoin:round;stroke-miterlimit:4;stroke-opacity:1;stroke-dashoffset:0;marker:none;visibility:visible;display:inline;overflow:visible;enable-background:accumulate"/>
    <path inkscape:connector-curvature="0" id="path3518" d="m 179.934 35.831 c 0 0 10.277 3.958 17.617 9.543 7.34 5.585 11.743 12.796 11.743 12.796 l -18.668 12.9 c 0 0 -10.049 -6.893 -20.551 -10.603 -10.503 -3.711 -25.193 -5.173 -25.193 -5.173 l -4.921 -19.453 c 0 0 10.241 -3.574 19.394 -3.856 9.153 -0.282 20.579 3.847 20.579 3.847 z" style="fill:none;stroke:url(#linearGradient3250);stroke-width:2.64834785;stroke-linecap:butt;stroke-linejoin:miter;stroke-miterlimit:4;stroke-opacity:1;stroke-dashoffset:0;marker:none;visibility:visible;display:inline;overflow:visible;enable-background:accumulate"/>
    <path inkscape:connector-curvature="0" id="path3479" d="m 103.618 90.511 c 0 0 19.107 -25.387 41.415 -33.967" style="fill:none;stroke:#666666;stroke-width:0.528px;stroke-linecap:butt;stroke-linejoin:miter;stroke-opacity:1;enable-background:new"/>
    <path inkscape:connector-curvature="0" style="fill:none;stroke:#ececec;stroke-width:1.58399999;stroke-linecap:butt;stroke-linejoin:miter;stroke-miterlimit:4;stroke-opacity:1;stroke-dasharray:none;enable-background:new" d="m 193.786 73.059 c 0 0 14.248 22.665 12.4 48.537" id="path3506"/>
    <path inkscape:connector-curvature="0" id="path3481" d="m 192.517 73.33 c 0 0 14.56 23.431 12.712 49.303" style="fill:none;stroke:#666666;stroke-width:0.528px;stroke-linecap:butt;stroke-linejoin:miter;stroke-opacity:1;enable-background:new"/>
    <path inkscape:connector-curvature="0" id="path3483" d="m 212.277 58.882 c 0 0 31.566 12.461 45.426 51.929" style="fill:none;stroke:#666666;stroke-width:0.528px;stroke-linecap:butt;stroke-linejoin:miter;stroke-opacity:1;enable-background:new"/>
    <path inkscape:connector-curvature="0" id="path3485" d="m 237.419 147.923 c 0 0 11.111 -0.863 20.819 -17.291" style="fill:none;stroke:#666666;stroke-width:0.528px;stroke-linecap:butt;stroke-linejoin:miter;stroke-opacity:1;enable-background:new"/>
    <path inkscape:connector-curvature="0" id="path3487" d="m 229.487 222.599 c 0 0 1.542 -9.572 -7.667 -26.903" style="fill:none;stroke:#666666;stroke-width:0.528px;stroke-linecap:butt;stroke-linejoin:miter;stroke-opacity:1;enable-background:new"/>
    <path inkscape:connector-curvature="0" id="path3489" d="m 141.456 234.012 c 0 0 17.081 -4.527 38.735 -34.395" style="fill:none;stroke:#666666;stroke-width:0.528px;stroke-linecap:butt;stroke-linejoin:miter;stroke-opacity:1;enable-background:new"/>
    <path inkscape:connector-curvature="0" id="path3491" d="m 79.759 169.748 c 0 0 -1.027 26.601 12.227 47.509" style="fill:none;stroke:#666666;stroke-width:0.528px;stroke-linecap:butt;stroke-linejoin:miter;stroke-opacity:1;enable-background:new"/>
    <path inkscape:connector-curvature="0" id="path3493" d="m 75.566 232.412 c 0 0 -3.923 0.048 -18.768 -8.901" style="fill:none;stroke:#666666;stroke-width:0.528px;stroke-linecap:butt;stroke-linejoin:miter;stroke-opacity:1;enable-background:new"/>
    <path inkscape:connector-curvature="0" id="path3495" d="m 48.351 142.774 c 0 0 -10.638 4.469 -16.369 16.849" style="fill:none;stroke:#666666;stroke-width:0.528px;stroke-linecap:butt;stroke-linejoin:miter;stroke-opacity:1;enable-background:new"/>
    <path inkscape:connector-curvature="0" id="path3497" d="m 61.744 68.913 c 0 0 -3.818 14.738 -0.501 27.12" style="fill:none;stroke:#666666;stroke-width:0.528px;stroke-linecap:butt;stroke-linejoin:miter;stroke-opacity:1;enable-background:new"/>
    <path inkscape:connector-curvature="0" id="path3499" d="m 74.533 50.089 c 0 0 31.709 -26.873 64.004 -14.925" style="fill:none;stroke:#666666;stroke-width:0.528px;stroke-linecap:butt;stroke-linejoin:miter;stroke-opacity:1;enable-background:new"/>
    <path inkscape:connector-curvature="0" id="path3501" d="m 149.63 255.281 c 0 0 27.66 7.102 70.323 -18.075" style="fill:none;stroke:#666666;stroke-width:0.528px;stroke-linecap:butt;stroke-linejoin:miter;stroke-opacity:1;enable-background:new"/>
    <path style="fill:none;stroke:#f2f2f2;stroke-width:1.58399999;stroke-linecap:square;stroke-linejoin:miter;stroke-miterlimit:4;stroke-opacity:1;stroke-dasharray:none;enable-background:new" d="m 156.915 121.6 c 0 0 15.888 -21.881 39.252 -32.375" id="path3504" inkscape:connector-curvature="0"/>
    <path inkscape:connector-curvature="0" style="fill:none;stroke:#ffffff;stroke-width:1.58399999;stroke-linecap:butt;stroke-linejoin:miter;stroke-miterlimit:4;stroke-opacity:1;stroke-dasharray:none;enable-background:new" d="m 141.89 234.927 c 0 0 16.274 -3.14 37.929 -33.008" id="path3508"/>
    <path inkscape:connector-curvature="0" style="fill:none;stroke:#ffffff;stroke-width:1.58399999;stroke-linecap:butt;stroke-linejoin:miter;stroke-miterlimit:4;stroke-opacity:1;stroke-dasharray:none;enable-background:new" d="m 78.69 170.339 c 0 0 -1.027 26.609 12.227 47.517" id="path3510"/>
    <path inkscape:connector-curvature="0" style="fill:none;stroke:#999999;stroke-width:0.528px;stroke-linecap:butt;stroke-linejoin:miter;stroke-miterlimit:4;stroke-opacity:1;stroke-dasharray:none;stroke-dashoffset:0;marker:none;visibility:visible;display:inline;overflow:visible;enable-background:accumulate" d="m 115.415 136.66 c 0 0 13.907 3.267 53.483 17.268" id="path2453"/>
    <path inkscape:connector-curvature="0" id="path3260" d="m 115.415 135.986 c 0 0 13.907 3.267 53.483 17.268" style="fill:none;stroke:#ececec;stroke-width:0.528px;stroke-linecap:butt;stroke-linejoin:miter;stroke-miterlimit:4;stroke-opacity:1;stroke-dasharray:none;stroke-dashoffset:0;marker:none;visibility:visible;display:inline;overflow:visible;enable-background:accumulate"/>
    <text xml:space="preserve" style="font-size:275.82492065px;font-style:normal;font-weight:normal;line-height:125%;letter-spacing:0px;word-spacing:0px;fill:#000000;fill-opacity:1;stroke:none;font-family:Sans" x="552.785" y="250.852" id="text3247"><tspan id="tspan3249" x="552.785" y="250.852" style="font-size:250px;font-style:normal;font-variant:normal;font-weight:normal;font-stretch:normal;font-family:Analecta;-inkscape-font-specification:Analecta">Ref</tspan></text>
    <text xml:space="preserve" style="font-size:352.49569702px;font-style:normal;font-weight:normal;line-height:125%;letter-spacing:0px;word-spacing:0px;fill:#000000;fill-opacity:1;stroke:none;font-family:Sans" x="283.833" y="248.805" id="text3247-6"><tspan id="tspan3249-3" x="283.833" y="248.805" style="font-size:250px;font-style:normal;font-variant:normal;font-weight:normal;font-stretch:normal;font-family:Analecta;-inkscape-font-specification:Analecta">uiz</tspan></text>
  </g>
</svg>
